<?xml version="1.0" encoding="UTF-8"?>
<svg width="588px" height="489px" viewBox="0 0 588 489" version="1.1" xmlns="http://www.w3.org/2000/svg" xmlns:xlink="http://www.w3.org/1999/xlink">
    <!-- Generator: Sketch 57.1 (83088) - https://sketch.com -->
    <title>contact-pic</title>
    <desc>Created with Sketch.</desc>
    <g id="Page-1" stroke="none" stroke-width="1" fill="none" fill-rule="evenodd">
        <g id="連絡表單" transform="translate(-65.000000, -588.000000)">
            <g id="Group-2" transform="translate(45.000000, 575.000000)">
                <g id="Group">
                    <g id="Mobile3" transform="translate(118.000000, 30.000000)">
                        <rect id="Container" fill="#F2F2F2" x="0" y="0" width="159" height="302" rx="8"></rect>
                        <circle id="Touch" fill="#FFFFFF" cx="79" cy="268" r="15"></circle>
                        <g id="Camera" transform="translate(64.000000, 16.000000)" fill="#FFFFFF">
                            <circle id="Lens" cx="2" cy="2" r="2"></circle>
                            <rect id="Sensor" x="9" y="0" width="21" height="4" rx="2"></rect>
                        </g>
                        <g id="Rows" transform="translate(14.000000, 28.000000)">
                            <g id="Row">
                                <rect id="Background" fill="#FFFFFF" x="0" y="0" width="131" height="54" rx="4"></rect>
                                <g id="Text" transform="translate(39.000000, 16.200000)" fill="#DDE3E9">
                                    <rect id="Name" x="0" y="0" width="73" height="8.1" rx="3"></rect>
                                    <rect id="Name" x="0" y="13.5" width="49" height="8.1" rx="3"></rect>
                                </g>
                                <circle id="Avatar" fill="#C5CFD6" cx="21" cy="27" r="12"></circle>
                            </g>
                            <g id="Row" transform="translate(0.000000, 62.000000)">
                                <rect id="Background" fill="#FFFFFF" x="0" y="0" width="131" height="42" rx="4"></rect>
                                <g id="Text" transform="translate(39.000000, 12.600000)" fill="#DDE3E9">
                                    <rect id="Name" x="0" y="0" width="73" height="6.3" rx="3"></rect>
                                    <rect id="Name" x="0" y="10.5" width="49" height="6.3" rx="3"></rect>
                                </g>
                                <circle id="Avatar" fill="#C5CFD6" cx="21" cy="21" r="12"></circle>
                            </g>
                            <g id="Row" transform="translate(0.000000, 112.000000)">
                                <rect id="Background" fill="#FFFFFF" x="0" y="0" width="131" height="42" rx="4"></rect>
                                <g id="Text" transform="translate(39.000000, 12.600000)" fill="#DDE3E9">
                                    <rect id="Name" x="0" y="0" width="73" height="6.3" rx="3"></rect>
                                    <rect id="Name" x="0" y="10.5" width="49" height="6.3" rx="3"></rect>
                                </g>
                                <circle id="Avatar" fill="#AFB9C5" cx="21" cy="21" r="12"></circle>
                            </g>
                            <g id="Row" transform="translate(0.000000, 162.000000)">
                                <rect id="Background" fill="#FFFFFF" x="0" y="0" width="131" height="42" rx="4"></rect>
                                <g id="Text" transform="translate(39.000000, 12.600000)" fill="#DDE3E9">
                                    <rect id="Name" x="0" y="0" width="73" height="6.3" rx="3"></rect>
                                    <rect id="Name" x="0" y="10.5" width="49" height="6.3" rx="3"></rect>
                                </g>
                                <circle id="Avatar" fill="#C5CFD6" cx="21" cy="21" r="12"></circle>
                            </g>
                        </g>
                    </g>
                    <g id="Mobile3" transform="translate(184.000000, 56.000000)">
                        <rect id="Container" fill="#DDE3E9" x="0" y="0" width="159" height="302" rx="8"></rect>
                        <circle id="Touch" fill="#FFFFFF" cx="79" cy="268" r="15"></circle>
                        <g id="Camera" transform="translate(64.000000, 16.000000)" fill="#FFFFFF">
                            <circle id="Lens" cx="2" cy="2" r="2"></circle>
                            <rect id="Sensor" x="9" y="0" width="21" height="4" rx="2"></rect>
                        </g>
                        <g id="Rows" transform="translate(14.000000, 28.000000)">
                            <g id="Row">
                                <rect id="Container" fill="#FFFFFF" x="0" y="0" width="131" height="54" rx="4"></rect>
                                <g id="Text-Stuff" transform="translate(9.000000, 16.200000)" fill="#DDE3E9">
                                    <rect id="Label" x="0" y="0" width="73" height="8.1" rx="3"></rect>
                                    <rect id="Label" x="0" y="13.5" width="49" height="8.1" rx="3"></rect>
                                </g>
                                <g id="Check" transform="translate(110.000000, 20.000000)">
                                    <circle id="Background" fill="#DDE3E9" cx="7" cy="7" r="7"></circle>
                                    <circle id="Indicator" fill="#F2F2F2" cx="7" cy="7" r="3"></circle>
                                </g>
                            </g>
                            <g id="Row" transform="translate(0.000000, 62.000000)">
                                <rect id="Background" fill="#FFFFFF" x="0" y="0" width="131" height="42" rx="4"></rect>
                                <g id="Text" transform="translate(39.000000, 12.600000)" fill="#DDE3E9">
                                    <rect id="Name" x="0" y="0" width="73" height="6.3" rx="3"></rect>
                                    <rect id="Name" x="0" y="10.5" width="49" height="6.3" rx="3"></rect>
                                </g>
                                <circle id="Avatar" fill="#C5CFD6" cx="21" cy="21" r="12"></circle>
                            </g>
                            <g id="Row" transform="translate(0.000000, 112.000000)">
                                <rect id="Container" fill="#FFFFFF" x="0" y="0" width="131" height="42" rx="4"></rect>
                                <g id="Text-Stuff" transform="translate(9.000000, 12.600000)">
                                    <rect id="Label" fill="#DDE3E9" x="0" y="0" width="73" height="6.3" rx="3"></rect>
                                    <rect id="Label" fill="#AFB9C5" x="0" y="10.5" width="49" height="6.3" rx="3"></rect>
                                </g>
                                <g id="Check" transform="translate(110.000000, 14.000000)">
                                    <circle id="Background" fill="#DDE3E9" cx="7" cy="7" r="7"></circle>
                                    <circle id="Indicator" fill="#F2F2F2" cx="7" cy="7" r="3"></circle>
                                </g>
                            </g>
                            <g id="Row" transform="translate(0.000000, 162.000000)">
                                <rect id="Background" fill="#FFFFFF" x="0" y="0" width="131" height="42" rx="4"></rect>
                                <g id="Text" transform="translate(39.000000, 12.600000)" fill="#DDE3E9">
                                    <rect id="Name" x="0" y="0" width="73" height="6.3" rx="3"></rect>
                                    <rect id="Name" x="0" y="10.5" width="49" height="6.3" rx="3"></rect>
                                </g>
                                <circle id="Avatar" fill="#C5CFD6" cx="21" cy="21" r="12"></circle>
                            </g>
                        </g>
                    </g>
                    <g id="Web" transform="translate(250.000000, 81.000000)">
                        <rect id="Container" fill="#F2F2F2" x="0" y="0" width="335" height="346" rx="8"></rect>
                        <rect id="Background" fill="#FFFFFF" x="249" y="43" width="70" height="81" rx="8"></rect>
                        <g id="Profile-Info" transform="translate(259.000000, 58.000000)" fill="#DDE3E9">
                            <circle id="Avatar" cx="25" cy="16" r="16"></circle>
                            <rect id="Name" x="0" y="36" width="50" height="6" rx="3"></rect>
                            <rect id="Name" x="8" y="46" width="34" height="6" rx="3"></rect>
                        </g>
                        <path d="M8,0 L327,0 C331.418278,-8.11624501e-16 335,3.581722 335,8 L335,27 L335,27 L0,27 L0,8 C-5.41083001e-16,3.581722 3.581722,8.11624501e-16 8,0 Z" id="Header" fill="#C5CFD6"></path>
                        <g id="Buttons" transform="translate(9.000000, 10.000000)" fill="#F2F2F2">
                            <circle id="buttons" cx="4" cy="4" r="4"></circle>
                            <circle id="buttons" cx="16" cy="4" r="4"></circle>
                            <circle id="buttons" cx="28" cy="4" r="4"></circle>
                        </g>
                        <g id="Components" transform="translate(249.000000, 132.000000)">
                            <rect id="Background" fill="#FFFFFF" x="0" y="0" width="70" height="194" rx="8"></rect>
                            <g id="Rows" transform="translate(18.000000, 18.000000)">
                                <rect id="Data" fill="#DDE3E9" x="0" y="0" width="34" height="26" rx="4"></rect>
                                <rect id="Data" fill="#AFB9C5" x="0" y="34" width="34" height="25" rx="4"></rect>
                                <rect id="Data" fill="#DDE3E9" x="0" y="67" width="34" height="25" rx="4"></rect>
                                <rect id="Data" fill="#DDE3E9" x="0" y="133" width="34" height="25" rx="4"></rect>
                                <rect id="Data" fill="#C5CFD6" x="0" y="100" width="34" height="25" rx="4"></rect>
                            </g>
                        </g>
                        <g id="Rows" transform="translate(16.000000, 44.000000)">
                            <g id="Row">
                                <rect id="Container" fill="#FFFFFF" x="0" y="0" width="225" height="47" rx="4"></rect>
                                <g id="Text-Stuff" transform="translate(9.000000, 14.100000)" fill="#DDE3E9">
                                    <rect id="Label" x="0" y="0" width="167" height="7.05" rx="3"></rect>
                                    <rect id="Label" x="0" y="11.75" width="112.09589" height="7.05" rx="3"></rect>
                                </g>
                                <g id="Check" transform="translate(193.954198, 16.500000)">
                                    <circle id="Background" fill="#DDE3E9" cx="7" cy="7" r="7"></circle>
                                    <circle id="Indicator" fill="#F2F2F2" cx="7" cy="7" r="3"></circle>
                                </g>
                            </g>
                            <g id="Row" transform="translate(0.000000, 55.000000)">
                                <rect id="Container" fill="#FFFFFF" x="0" y="0" width="225" height="39" rx="4"></rect>
                                <g id="Text-Stuff" transform="translate(9.000000, 11.700000)" fill="#DDE3E9">
                                    <rect id="Label" x="0" y="0" width="167" height="5.85" rx="2.925"></rect>
                                    <rect id="Label" x="0" y="9.75" width="112.09589" height="5.85" rx="2.925"></rect>
                                </g>
                                <g id="Check" transform="translate(193.954198, 12.500000)">
                                    <circle id="Background" fill="#DDE3E9" cx="7" cy="7" r="7"></circle>
                                    <circle id="Indicator" fill="#F2F2F2" cx="7" cy="7" r="3"></circle>
                                </g>
                            </g>
                            <g id="Row" transform="translate(0.000000, 102.000000)">
                                <rect id="Container" fill="#FFFFFF" x="0" y="0" width="225" height="39" rx="4"></rect>
                                <g id="Text-Stuff" transform="translate(9.000000, 11.700000)" fill="#DDE3E9">
                                    <rect id="Label" x="0" y="0" width="167" height="5.85" rx="2.925"></rect>
                                    <rect id="Label" x="0" y="9.75" width="112.09589" height="5.85" rx="2.925"></rect>
                                </g>
                                <g id="Check" transform="translate(193.954198, 12.500000)">
                                    <circle id="Background" fill="#DDE3E9" cx="7" cy="7" r="7"></circle>
                                    <circle id="Indicator" fill="#AFB9C5" cx="7" cy="7" r="3"></circle>
                                </g>
                            </g>
                            <g id="Row" transform="translate(0.000000, 243.000000)">
                                <rect id="Container" fill="#FFFFFF" x="0" y="0" width="225" height="39" rx="4"></rect>
                                <g id="Text-Stuff" transform="translate(9.000000, 11.700000)" fill="#DDE3E9">
                                    <rect id="Label" x="0" y="0" width="167" height="5.85" rx="2.925"></rect>
                                    <rect id="Label" x="0" y="9.75" width="112.09589" height="5.85" rx="2.925"></rect>
                                </g>
                                <g id="Check" transform="translate(193.954198, 12.500000)">
                                    <circle id="Background" fill="#DDE3E9" cx="7" cy="7" r="7"></circle>
                                    <circle id="Indicator" fill="#F2F2F2" cx="7" cy="7" r="3"></circle>
                                </g>
                            </g>
                            <g id="Row" transform="translate(0.000000, 196.000000)">
                                <rect id="Container" fill="#FFFFFF" x="0" y="0" width="225" height="39" rx="4"></rect>
                                <g id="Text-Stuff" transform="translate(9.000000, 11.700000)" fill="#DDE3E9">
                                    <rect id="Label" x="0" y="0" width="167" height="5.85" rx="2.925"></rect>
                                    <rect id="Label" x="0" y="9.75" width="112.09589" height="5.85" rx="2.925"></rect>
                                </g>
                                <g id="Check" transform="translate(193.954198, 12.500000)">
                                    <circle id="Background" fill="#DDE3E9" cx="7" cy="7" r="7"></circle>
                                    <circle id="Indicator" fill="#F2F2F2" cx="7" cy="7" r="3"></circle>
                                </g>
                            </g>
                            <g id="Row" transform="translate(0.000000, 149.000000)">
                                <rect id="Container" fill="#FFFFFF" x="0" y="0" width="225" height="39" rx="4"></rect>
                                <g id="Text-Stuff" transform="translate(9.000000, 11.700000)" fill="#DDE3E9">
                                    <rect id="Label" x="0" y="0" width="167" height="5.85" rx="2.925"></rect>
                                    <rect id="Label" x="0" y="9.75" width="112.09589" height="5.85" rx="2.925"></rect>
                                </g>
                                <g id="Check" transform="translate(193.954198, 12.500000)">
                                    <circle id="Background" fill="#DDE3E9" cx="7" cy="7" r="7"></circle>
                                    <circle id="Indicator" fill="#F2F2F2" cx="7" cy="7" r="3"></circle>
                                </g>
                            </g>
                        </g>
                    </g>
                    <g id="humaaan-2" transform="translate(467.500000, 302.000000) scale(-1, 1) translate(-467.500000, -302.000000) translate(327.000000, 102.000000)">
                        <g id="Head/Front/Airy" transform="translate(77.000000, 0.903238)">
                            <g id="Head" stroke-width="1" transform="translate(50.535710, 28.825259)" fill="#B28B67">
                                <path d="M35.696312,8.49316061 C41.1193653,18.5365519 40.4749656,44.0124467 33.4661524,45.8074809 C30.6710808,46.5233295 24.7167849,44.7698165 18.6566649,41.1405676 L22.4603157,67.8788349 L0,67.8788349 L7.73207325,32.0703716 C3.41985783,27.0410919 0.501277472,20.8776633 0.98898042,13.971374 C2.39420435,-5.9277941 30.2732588,-1.55023065 35.696312,8.49316061 Z" id="Head-[skin]"></path>
                            </g>
                            <path d="M73.430212,25.7430544 C70.4700074,25.2607251 62.499526,24.9291104 61.0296269,24.9293245 C60.090292,24.9293245 59.072339,25.1425513 58.5159984,24.2855765 C58.0604006,23.583812 58.2273027,22.3969352 58.0913322,21.582563 C57.9334518,20.6365297 57.7091971,19.7026991 57.4823648,18.7712234 C56.8368808,16.1206603 55.8608145,13.5989752 54.495095,11.2314299 C51.9324914,6.78963326 48.1783737,3.31035434 43.4389532,1.28577025 C38.2052702,-0.949685728 32.2829278,-1.46155848 26.6533623,-1.00813042 C20.6289883,-0.523018063 15.1755616,1.45296916 9.4875696,3.31249517 C4.06722255,5.08446118 -1.61002927,5.781944 -7.27911856,4.91662002 C-12.9909537,4.04487354 -17.3067821,0.968927223 -22.1246058,-1.95052433 C-27.0567049,-4.93933881 -32.6931441,-6.89413181 -38.5237655,-6.44477134 C-43.9664521,-6.02516841 -48.9827541,-3.79228144 -53.4833133,-0.809461282 C-57.6941028,1.98132631 -61.1685466,5.33900602 -63.1301305,10.0646769 C-65.2403584,15.1480806 -65.2384251,20.7279432 -61.7682775,25.2204775 C-56.7384428,31.732458 -47.4007276,33.4164358 -39.6321506,33.2490228 C-35.1386799,33.1524713 -30.7255457,32.3374569 -26.48318,30.8549312 C-20.8254753,28.8776595 -15.9363369,25.5264023 -10.6433682,22.8073325 C-8.15938258,21.5313971 -5.59183846,20.4834602 -2.90056763,19.7286031 C-0.288988833,18.9957966 2.28328096,18.6596861 4.64783593,20.2272027 C7.14922063,21.8854906 9.3906933,23.5144491 12.2523032,24.5525382 C14.9974896,25.5484529 17.9052822,26.1054971 20.8300443,26.0830184 C26.5206139,26.0393455 32.1302027,24.2776554 37.6570922,23.0976293 C42.1640955,22.1355397 46.9864301,21.1766614 51.5812879,22.1015005 C53.4986224,22.4874924 56.2992281,23.2843097 56.991754,25.2641505 C45.3363109,27.3630214 40.758648,41.6851824 44.0444945,52.1990186 C45.8179107,57.87372 56.4781593,64.5073858 60.6230042,61.5241096 C63.2488827,59.6341183 61.6547046,57.1529021 60.6230042,55.5149521 C58.6472432,52.3782062 57.9712572,48.3489477 61.6272097,46.1650858 C64.7807373,44.2815825 68.0964543,48.754403 68.1591769,48.7494791 C69.0259083,48.6816147 76.5152208,44.4732323 81.6752208,38.3321349 C86.76558,38.6319516 87.5378611,35.297017 86.3223831,32.5696672 C85.106905,29.8423174 77.5202821,26.4099233 73.430212,25.7430544 Z" id="hair" fill="#191847"></path>
                        </g>
                        <g id="Bottom/Standing/Jogging" transform="translate(0.000000, 175.796823)">
                            <polygon id="[skin]-Leg" fill="#915B3C" points="121.754365 0 191.347674 116.381021 243.522633 214.771364 254.760656 214.771364 167.34078 4.76888227e-13"></polygon>
                            <g id="Shoe/Flat-Sneaker-Shoe" transform="translate(234.143009, 186.431614)" fill="#E4E4E4">
                                <path d="M2.39021959,23.9858352 C1.42041422,26.6149395 0.935511539,28.5946402 0.935511539,29.924937 C0.935511539,31.6057375 1.21655249,34.0584434 1.7786344,37.2830547 C3.73566706,37.2830547 21.3238491,37.2830547 54.5431805,37.2830547 C55.914344,32.7666854 55.1228289,30.328443 52.1686352,29.9683274 C49.2144415,29.6082118 46.7603426,29.2830562 44.8063386,28.9928607 L20.4185837,18.1606003 C19.8718417,17.917755 19.2317546,18.164112 18.9889093,18.710854 C18.9851454,18.719328 18.9814905,18.72785 18.9779455,18.7364178 L17.4596512,22.4058996 L17.4596512,22.4058996 C14.7248405,23.6772118 12.5025229,24.3128678 10.7926983,24.3128678 C9.45492435,24.3128678 7.62631272,23.7944919 5.30686343,22.7577399 L5.30686508,22.7577362 C4.21452229,22.2694787 2.93319257,22.7591866 2.44493505,23.8515294 C2.42520284,23.8956748 2.40695413,23.9404685 2.39021959,23.9858352 Z" id="shoe"></path>
                            </g>
                            <path d="M229.032189,199.016112 L250.704519,192.458216 C241.20928,164.064387 229.571518,132.818019 215.79123,98.7191116 C202.010943,64.6202046 187.211427,31.7138341 171.392683,2.84217094e-14 L110.182149,2.84217094e-14 C127.769192,40.1165439 146.413815,76.5675736 166.116019,109.353089 C185.818224,142.138605 206.79028,172.026279 229.032189,199.016112 Z" id="Pant" fill="#DB2721"></path>
                            <path d="M117.180735,2.84217094e-14 C110.612434,40.8970898 97.9439792,93.1478563 96.7484187,94.7603305 C95.9513784,95.8353133 67.2577212,105.453027 10.6674472,123.613472 L13.0949959,133.526199 C80.5787648,123.786634 116.136956,116.23028 119.769569,110.857135 C125.218489,102.797418 152.425681,39.1254725 162.963535,2.84217094e-14 L117.180735,2.84217094e-14 Z" id="[skin]-Leg" fill="#915B3C"></path>
                            <path d="M30.5598846,115.044679 L34.8357472,131.009841 C85.3096745,135.437996 116.236165,132.238376 127.615217,121.410981 C138.99427,110.583585 151.963032,70.1132585 166.521502,-1.13686838e-13 L108.153602,-1.13686838e-13 C98.9296986,57.4133245 93.7729361,87.3250606 92.6833148,89.7352084 C91.5936935,92.1453562 70.8858835,100.581846 30.5598846,115.044679 Z" id="Pant" fill="#FF4133"></path>
                            <g id="Shoe/Flat-Sneaker-Shoe" transform="translate(22.946015, 144.273711) rotate(80.000000) translate(-22.946015, -144.273711) translate(-5.619432, 125.536866)" fill="#E4E4E4">
                                <path d="M2.39021959,23.9858352 C1.42041422,26.6149395 0.935511539,28.5946402 0.935511539,29.924937 C0.935511539,31.6057375 1.21655249,34.0584434 1.7786344,37.2830547 C3.73566706,37.2830547 21.3238491,37.2830547 54.5431805,37.2830547 C55.914344,32.7666854 55.1228289,30.328443 52.1686352,29.9683274 C49.2144415,29.6082118 46.7603426,29.2830562 44.8063386,28.9928607 L20.4185837,18.1606003 C19.8718417,17.917755 19.2317546,18.164112 18.9889093,18.710854 C18.9851454,18.719328 18.9814905,18.72785 18.9779455,18.7364178 L17.4596512,22.4058996 L17.4596512,22.4058996 C14.7248405,23.6772118 12.5025229,24.3128678 10.7926983,24.3128678 C9.45492435,24.3128678 7.62631272,23.7944919 5.30686343,22.7577399 L5.30686508,22.7577362 C4.21452229,22.2694787 2.93319257,22.7591866 2.44493505,23.8515294 C2.42520284,23.8956748 2.40695413,23.9404685 2.39021959,23.9858352 Z" id="shoe"></path>
                            </g>
                        </g>
                        <g id="Body/Jacket" transform="translate(20.000000, 77.856415)">
                            <path d="M64.1092673,86.8632486 L83.722166,86.9399891 C71.612106,125.836755 65.0744731,146.475135 64.1092673,148.855129 C61.9375542,154.210118 66.5331911,162.365672 68.4984679,166.748406 C62.097627,169.598188 62.7796434,159.044281 54.7051547,162.781929 C47.3351359,166.193481 41.7287809,172.374986 33.2137891,167.147395 C32.1669209,166.504694 31.0197239,164.084807 33.7914969,162.193793 C40.6969942,157.482588 50.6482342,149.23713 51.9928035,146.523074 C53.8263639,142.821973 57.8651851,122.935365 64.1092673,86.8632486 L64.1092673,86.8632486 Z M182.117146,83.2238218 L208.703829,109.029785 C216.439573,112.312897 222.777914,115.938116 227.718851,119.905442 C228.829994,121.238995 230.039653,123.794152 224.811782,122.650756 L224.183201,122.514545 C219.14717,121.434116 213.993989,120.606277 213.050723,122.230205 C212.068154,123.921798 214.963374,126.513919 213.147465,128.727778 C211.936859,130.203685 207.865495,125.509116 200.933375,114.644072 L173.286741,98.426267 L182.117146,83.2238218 Z" id="Arms-[skin]" fill="#B28B67"></path>
                            <path d="M114.546109,8.63876867 L122.510128,6.55171399 C139.456224,39.930528 166.508076,69.2398104 203.665685,94.4795612 L180.228514,128.453828 C142.026449,91.2292535 117.015774,51.5635624 114.546109,8.63876867 Z" id="Coat-Back" fill="#191847" transform="translate(159.105897, 67.502771) rotate(5.000000) translate(-159.105897, -67.502771) "></path>
                            <path d="M84.4679998,106.454761 L156.735066,106.454761 C139.992448,65.9507293 131.621138,31.5430347 131.621138,3.23167735 L109.821735,0 C92.6894513,27.4152824 87.8512495,61.1690458 84.4679998,106.454761 Z" id="Shirt" fill="#DDE3E9"></path>
                            <path d="M110.79175,-4.26325641e-14 C112.494463,0.0583382697 115.087915,0.163446246 118.572103,0.315323928 L118.572103,0.315323928 L123.839622,15.2929549 C124.396808,33.5541886 127.650693,70.3555019 133.601277,125.696895 L133.601277,125.696895 L86.228747,125.696343 C86.3529319,129.518725 86.5577018,133.376815 86.8430567,137.270613 L86.8430567,137.270613 L51.6193332,137.270613 C56.8881809,78.1265547 76.1293539,32.3696837 109.342852,1.42108547e-14 L109.342852,1.42108547e-14 L109.359333,0.015 L109.368775,-4.26325641e-14 Z" id="Coat-Front" fill="#2F3676"></path>
                            <path d="M99.4845331,126.064849 L86.2409739,126.065104 C85.6611864,108.923841 86.7000389,92.4998109 89.3575314,76.7930146 C90.7065118,100.618023 94.0819671,117.041705 99.4845331,126.064849 Z" id="Shade" fill-opacity="0.1" fill="#000000"></path>
                            <polygon id="Light" fill-opacity="0.2" fill="#FFFFFF" points="96.7730155 97.1166243 120.132266 86.3117199 120.132266 97.1166243"></polygon>
                        </g>
                    </g>
                    <g id="humaaan-4">
                        <g id="Head/Front/Curly" transform="translate(77.000000, 0.339389)">
                            <g id="Head" stroke-width="1" transform="translate(50.535710, 28.825259)" fill="#B28B67">
                                <path d="M35.696312,8.49316061 C41.1193653,18.5365519 40.4749656,44.0124467 33.4661524,45.8074809 C30.6710808,46.5233295 24.7167849,44.7698165 18.6566649,41.1405676 L22.4603157,67.8788349 L0,67.8788349 L7.73207325,32.0703716 C3.41985783,27.0410919 0.501277472,20.8776633 0.98898042,13.971374 C2.39420435,-5.9277941 30.2732588,-1.55023065 35.696312,8.49316061 Z" id="Head-[skin]"></path>
                            </g>
                            <path d="M96.1822776,23.3953589 C95.717171,21.7709731 94.4661522,20.3801602 92.7801948,19.9675451 C92.3713526,19.8674598 91.949123,19.8270349 91.5284357,19.8438888 C91.3775336,19.8498731 91.3352119,19.893107 91.2646964,19.7882587 C91.2123804,19.7105231 91.2112082,19.5206115 91.1896772,19.4292585 C91.1226781,19.1451848 91.0388985,18.8646529 90.9355004,18.5913878 C90.5827375,17.6593551 89.9899256,16.8344912 89.2752692,16.1396343 C87.9385582,14.839686 86.1324221,13.9425213 84.2559555,13.7802109 C83.2289454,13.6914227 82.2094002,13.8572137 81.2384694,14.1891622 C80.7357916,14.3609987 80.248352,14.5749699 79.7736212,14.8115351 C79.6306776,14.8827367 79.1669283,15.231478 79.0234911,15.208884 C78.8650625,15.1839695 78.5466628,14.7927882 78.417847,14.6945959 C76.8256019,13.48081 74.8593715,13.0035883 72.8761136,13.0178587 C70.6375684,13.0346092 68.4820009,13.1457472 66.6150351,14.501631 C66.2198272,14.7886968 65.8434357,15.1029976 65.4850587,15.4339079 C65.2963386,15.6081259 65.113541,15.7888779 64.9391955,15.9771408 C64.8340082,16.0907214 64.7315972,16.2068667 64.6330111,16.3261264 C64.4656986,16.5285563 64.4925352,16.5950559 64.2583471,16.4538129 C63.3598443,15.911435 62.3186448,15.6577717 61.2699186,15.7858246 C60.6471854,15.8619114 60.0412944,16.0476707 59.4660035,16.2921743 C59.2701269,16.3754057 58.8167421,16.7074152 58.6079716,16.7106517 C58.4008668,16.713827 57.9538364,16.4060602 57.7405006,16.3278362 C56.5882529,15.9052064 55.346303,15.8010298 54.1351998,15.9963151 C52.8859084,16.1978291 51.6587032,16.693065 50.6002294,17.3774187 C50.0911355,17.7066193 49.646943,18.0713596 49.29017,18.5608553 C49.1361216,18.7722008 48.9968796,18.9957592 48.8222872,19.1917162 C48.7200613,19.3064571 48.5176452,19.4241901 48.4627998,19.5694023 C48.4956207,19.4824459 47.0965376,18.9465409 46.9645138,18.9122835 C46.2611473,18.7297607 45.5449485,18.766766 44.8562034,18.9919731 C43.5610737,19.4154578 42.447261,20.3651382 41.5318543,21.3388172 C41.0616889,21.8389382 40.6502556,22.3917582 40.3010092,22.9807287 C40.133635,23.2628482 39.9805737,23.5530284 39.8405296,23.849376 C39.7726669,23.9929395 39.7276924,24.1725312 39.6382987,24.3018665 C39.5230554,24.4685125 39.4456302,24.4716879 39.2369214,24.544355 C38.176967,24.9133088 37.2107249,25.5378189 36.4749077,26.381674 C35.7306384,27.2354216 35.2477025,28.286775 35.0452247,29.3939416 C35.0333179,29.4591589 35.0262232,29.7294319 34.9877882,29.7647274 C34.935102,29.813335 34.7219513,29.7918401 34.641318,29.8012441 C34.3620937,29.8337917 34.0848435,29.8822161 33.811295,29.9465785 C33.3070131,30.0651664 32.8161803,30.2396897 32.3518758,30.4679501 C30.5419147,31.3577259 29.2475871,33.0258342 28.6141192,34.9028454 C27.9494345,36.872675 27.9612179,39.1294484 28.7556439,41.0625171 C28.8839662,41.3747416 29.0366573,41.6778065 29.2160001,41.9645059 C29.3261228,42.1404948 29.3616582,42.1409222 29.2901555,42.3255823 C29.2104477,42.5310044 29.0648512,42.7306254 28.9702135,42.9313455 C28.6614381,43.5863881 28.4455728,44.2811228 28.3092304,44.9906963 C28.0855301,46.1546533 27.9746671,47.3778431 28.1953444,48.5506545 C28.2978171,49.0952308 28.4763578,49.6275941 28.7487342,50.1126321 C28.8876061,50.3599447 29.0501065,50.5944948 29.2335827,50.8114582 C29.3288373,50.9241228 29.4300145,51.0317191 29.5358187,51.1347965 C29.5963399,51.193663 29.6756776,51.2452017 29.7271299,51.3109686 C29.8527377,51.4713249 29.8791425,51.3394859 29.8143644,51.5749519 C29.7237985,51.9041525 29.5184828,52.2289564 29.3927517,52.5493025 C29.2631955,52.8794191 29.1461014,53.2140544 29.0390017,53.5519872 C28.8220877,54.2362799 28.6386732,54.9329687 28.5239852,55.6416262 C28.3037397,57.0022119 28.3424215,58.4519524 28.9901405,59.7006673 C29.2670822,60.2348015 29.6643877,60.703352 30.1462749,61.0678481 C30.3821288,61.2461574 30.6376012,61.3998576 30.9055973,61.5260787 C31.043297,61.5910517 31.2191232,61.6188972 31.2819271,61.7512247 C31.3495431,61.8935058 31.2491679,62.1760529 31.2262796,62.3351268 C31.0271333,63.7189782 30.9272517,65.1719551 31.3412761,66.5280831 C31.7226031,67.7771645 32.5621886,68.8799955 33.6522494,69.6101479 C35.7669142,71.0265469 38.6173962,70.9466741 40.8393458,69.812761 C41.4185235,69.5171461 41.9603767,69.1501464 42.4437445,68.7172577 C43.6745896,70.3635659 46.2074123,70.3114776 48.0063303,69.8423775 C50.2475283,69.2579869 52.045891,67.7095657 53.0820317,65.6751294 C54.4988207,67.3887921 57.472196,66.8327967 58.4546635,64.9737386 C58.6951444,64.5187445 58.8377795,64.01728 58.9079866,63.5098311 C58.944941,63.2429778 58.9213741,62.973804 58.9491361,62.7090879 C58.9845481,62.3717657 59.2113331,62.0439696 59.3416912,61.7176391 C59.5955596,61.0825647 59.7531863,60.4265451 59.7599725,59.7415197 C59.763489,59.3838629 59.7178976,59.0353048 59.6836578,58.6805181 C59.6528728,58.3611489 59.7420197,58.06358 59.79267,57.7483632 C59.2178726,57.8424031 58.5175908,57.6883976 57.9760461,57.5227897 C57.4446191,57.3602962 56.9468767,56.9322927 56.5717808,56.5414166 C55.700855,55.6337488 55.1688111,54.4439003 54.8049434,53.2596698 C54.0061989,50.6605059 54.3336058,47.5421076 56.9647678,46.1156328 C58.1904923,45.4511252 61.8626083,45.4533049 63.3225006,45.7817272 C64.8575134,46.1270489 66.5976993,49.4923965 66.6833297,49.8087124 C66.7363243,50.0044863 66.7096728,50.2467916 66.8906812,50.3772261 C67.2884803,50.6640476 67.944528,50.1663081 68.2379418,49.9206442 C68.7442596,49.496671 69.1054127,48.932554 69.4181983,48.3607428 C70.0997253,47.11502 70.6491668,45.7791045 71.03728,44.4153434 C71.336493,43.3639289 71.5278043,42.2797226 71.9188787,41.2551156 C72.3080407,40.235577 72.9215199,39.3243064 73.8753617,38.7467551 C74.912983,38.1184589 76.1023702,37.7875485 77.2414772,37.3927032 C78.3705899,37.0013997 79.4802074,36.5231399 80.3554517,35.6928412 C80.5478735,35.5102573 80.7348045,35.3162543 80.8897166,35.1013061 C81.0119929,34.9316069 81.1328503,34.6067419 81.3191644,34.4991457 C81.6088149,34.3317669 82.0315381,34.7670371 82.2820134,34.925073 C83.5177322,35.704871 84.5486907,36.7924358 85.3801944,37.9805134 C86.2070711,39.1621181 86.8855629,40.2990844 87.4369168,41.6185125 C87.8458824,42.5970766 88.1011203,43.8503104 88.8204037,44.6522749 C89.1415179,45.0103592 91.5284357,45.2269904 92.3015774,44.9143652 C93.0747191,44.6017401 93.941203,43.7899783 94.2006855,43.2812471 C94.4663373,42.7605472 94.5298198,42.1885528 94.4163039,41.6185125 C94.3495516,41.2831444 94.2132092,40.9698817 94.1386219,40.640498 C94.075818,40.3638132 94.0188133,40.1022724 93.8832729,39.8487923 C93.6263816,39.3684562 93.1874947,39.0231956 92.658227,38.8788383 C93.2090257,38.3742595 93.6654335,37.7706336 93.981242,37.095867 C94.3093892,36.3948427 94.5875031,35.5423164 94.666409,34.7728994 C94.7305701,34.1479618 94.6315522,33.5004912 94.2872413,32.9634259 C93.9260264,32.4000417 93.2861424,32.0324924 92.7325058,31.6810643 C93.578199,31.0236402 94.301986,30.2241182 94.8970189,29.3389222 C96.0542021,27.6175043 96.769969,25.4476262 96.1822776,23.3953589 Z" id="hair" fill="#191847"></path>
                        </g>
                        <g id="Bottom/Standing/Skinny-Jeans-Walk" transform="translate(0.000000, 175.232974)">
                            <polygon id="Leg" fill="#1F28CF" points="119.881221 0 164.91314 119.191548 196.4772 207.042144 214.474997 207.042144 171.087068 9.19451821e-14"></polygon>
                            <path d="M108.751587,0 C108.262088,40.8970898 108.615976,95.9583831 107.475454,98.5076996 C106.715106,100.207244 83.0653911,119.571339 36.5263095,156.599986 L45.803037,172.37898 C101.055636,136.737561 130.094351,116.542561 132.919181,111.793977 C137.156426,104.671102 158.444013,39.1254725 169.519539,0 L108.751587,0 Z" id="Leg" fill="#2B44FF"></path>
                            <g id="Shoe/Flat-Pointy-Shoe" transform="translate(52.916320, 177.063191) rotate(50.000000) translate(-52.916320, -177.063191) translate(24.350873, 158.326345)" fill="#191847">
                                <path d="M0,37.2830547 L0.935511539,17.709451 L20.5812538,17.709451 C29.8967066,24.2339856 42.0583566,29.5157516 57.0662039,33.5547492 L57.0662039,37.2830547 L21.5167654,37.2830547 L9.35511539,35.418902 L9.35511539,37.2830547 L0,37.2830547 Z" id="Shoe"></path>
                            </g>
                            <g id="Shoe/Flat-Pointy-Shoe" transform="translate(194.806984, 186.431614)" fill="#191847">
                                <path d="M0,37.2830547 L0.935511539,17.709451 L20.5812538,17.709451 C29.8967066,24.2339856 42.0583566,29.5157516 57.0662039,33.5547492 L57.0662039,37.2830547 L21.5167654,37.2830547 L9.35511539,35.418902 L9.35511539,37.2830547 L0,37.2830547 Z" id="Shoe"></path>
                            </g>
                        </g>
                        <g id="Body/Long-Sleeve" transform="translate(20.000000, 76.293174)">
                            <path d="M63.7919152,69.522134 L84.3433473,69.5988745 C61.8081442,120.056383 50.0579398,146.475135 49.092734,148.855129 C46.9210209,154.210118 51.5166578,162.365672 53.4819346,166.748406 C47.0810937,169.598188 47.7631101,159.044281 39.6886214,162.781929 C32.3186026,166.193481 26.7122476,172.374986 18.1972558,167.147395 C17.1503876,166.504694 16.0031906,164.084807 18.7749636,162.193793 C25.6804609,157.482588 35.6317009,149.23713 36.9762702,146.523074 C38.8098306,142.821973 47.7483789,117.154993 63.7919152,69.522134 L63.7919152,69.522134 Z M238.099481,51.6540883 C233.947369,55.098127 229.734467,58.9079529 230.474247,60.7459762 C231.214028,62.5839995 235.075439,61.9001318 235.715122,64.7271679 C236.141577,66.6118586 229.874742,66.9181021 216.914617,65.6458982 L186.846852,77.5065367 L180.1984,60.9881101 L217.254395,55.9589396 C224.667097,51.8565668 231.486424,49.0793322 237.712375,47.6272357 C239.464422,47.5763384 242.251592,48.2100497 238.099481,51.6540883 Z" id="Arms-[skin]" fill="#997659"></path>
                            <path d="M115.905927,9.05041502 L132.028753,8.71048961 C139.085675,43.9021684 162.553248,64.4674709 210.033929,52.6561955 L220.434121,97.8604102 C175.941069,107.583727 134.908277,93.1112116 122.574202,45.2858787 C119.381299,32.9054108 116.584182,19.9751335 115.905927,9.05041502 Z" id="Clothes-Back" fill="#AFB9C5" transform="translate(168.170024, 54.715556) rotate(5.000000) translate(-168.170024, -54.715556) "></path>
                            <path d="M112.133292,0 L112.145348,0.015 L136.526195,5.57045696 C136.526195,46.8752373 149.61798,73.3778858 156.527596,103.668071 L156.735066,104.587134 L90.8910167,104.586912 C89.9634766,115.186607 89.3938835,126.081174 89.0970719,137.270613 L89.0970719,137.270613 L39.7953484,137.270613 C50.9673954,78.1265547 74.5478069,32.3696837 110.536583,0 L110.536583,0 L112.080348,0 L112.133292,0 Z" id="Clothes" fill="#C5CFD6"></path>
                            <path d="M101.27923,45.0682756 C99.5826556,71.0653072 100.580695,90.9049266 104.273348,104.587134 L104.273348,104.587134 L90.8910632,104.586381 C92.6881235,84.0503154 95.8287814,64.6210855 100.932389,46.2986913 Z" id="Shade" fill-opacity="0.1" fill="#000000"></path>
                        </g>
                    </g>
                </g>
            </g>
        </g>
    </g>
</svg>